<svg xmlns="http://www.w3.org/2000/svg" viewBox="0 0 100 100" role="img" aria-labelledby="logoTitle">
  <title id="logoTitle">Chemy logo</title>
  <path fill="#0B1439" d="M20 18C20 9.71573 27.7157 2 36 2H64C72.2843 2 80 9.71573 80 18V36C80 44.2843 72.2843 52 64 52H46V66L74 94H64L42 72H36C27.7157 72 20 64.2843 20 56V18Z"/>
  <path fill="white" d="M42 30C42 25.5817 45.5817 22 50 22H64C68.4183 22 72 25.5817 72 30V30C72 34.4183 68.4183 38 64 38H50C45.5817 38 42 34.4183 42 30Z"/>
  <path fill="white" d="M42 42C42 37.5817 45.5817 34 50 34H58C62.4183 34 66 37.5817 66 42V42C66 46.4183 62.4183 50 58 50H50C45.5817 50 42 46.4183 42 42Z"/>
</svg>
